<?xml version="1.0" standalone="no"?>
<!DOCTYPE svg PUBLIC "-//W3C//DTD SVG 20010904//EN"
 "http://www.w3.org/TR/2001/REC-SVG-20010904/DTD/svg10.dtd">
<svg version="1.0" xmlns="http://www.w3.org/2000/svg"
 width="1280.000000pt" height="640.000000pt" viewBox="0 0 1280.000000 640.000000"
 preserveAspectRatio="xMidYMid meet">
<metadata>
Created by potrace 1.15, written by Peter Selinger 2001-2017
</metadata>
<g transform="translate(0.000000,640.000000) scale(0.100000,-0.100000)"
fill="#000000" stroke="none">
<path d="M202 5283 c-60 -21 -144 -102 -173 -165 l-24 -53 0 -1820 c0 -1766 1
-1821 19 -1869 24 -63 86 -130 151 -164 l50 -27 1365 0 1365 0 51 27 c60 32
118 93 148 157 l21 46 0 1825 0 1825 -24 53 c-30 66 -113 144 -177 166 -43 14
-182 16 -1388 15 -1169 0 -1346 -3 -1384 -16z"/>
<path d="M4761 5279 c-111 -19 -202 -94 -242 -199 -18 -49 -19 -97 -19 -1790
l0 -1740 -355 0 -355 0 0 -31 c0 -112 52 -178 192 -243 177 -83 -129 -76 3345
-76 3496 0 3195 -7 3365 79 91 45 93 47 125 111 24 46 33 78 33 112 l0 48
-330 0 -330 0 -2 1743 -3 1742 -26 55 c-37 80 -81 125 -157 162 l-67 33 -2560
1 c-1482 1 -2583 -2 -2614 -7z"/>
<path d="M11652 3529 c-26 -13 -55 -39 -70 -62 l-27 -41 -3 -1030 c-2 -697 0
-1043 8 -1067 14 -49 44 -86 91 -109 36 -19 60 -20 524 -20 457 0 488 1 523
19 46 23 67 46 87 94 13 32 15 162 15 1064 0 1026 0 1027 -21 1071 -13 26 -38
54 -62 70 l-41 27 -490 3 c-486 2 -491 2 -534 -19z"/>
</g>
</svg>
