<svg height="508pt" viewBox="-5 0 508 508.998" width="508pt" xmlns="http://www.w3.org/2000/svg"><path d="m221.558594 293.839844h55.320312v168.320312h-55.320312zm0 0" fill="#d8d6d7"/><path d="m255.398438 293.839844h21.480468v168.320312h-21.480468zm0 0" fill="#fff"/><path d="m483.9375 330.292969h-469.4375c-5.523438 0-10-4.476563-10-10v-305.792969c0-5.523438 4.476562-10 10-10h469.4375c5.523438 0 10 4.476562 10 10v305.792969c0 5.523437-4.476562 10-10 10zm0 0" fill="#d8d6d7"/><path d="m467.9375 40.5v253.800781c0 5.519531-4.476562 10-10 10h-417.4375c-5.519531 0-10-4.480469-10-10v-253.800781c0-5.519531 4.480469-10 10-10h417.4375c5.523438 0 10 4.480469 10 10zm0 0" fill="#56c1b3"/><path d="m467.9375 40.5v253.800781c0 5.519531-4.476562 10-10 10h-373.9375c-5.519531 0-10-4.480469-10-10v-253.800781c0-5.519531 4.480469-10 10-10h373.9375c5.523438 0 10 4.480469 10 10zm0 0" fill="#7befe4"/><path d="m376.558594 472.160156v23.339844c0 5.519531-4.480469 10-10 10h-234.679688c-5.519531 0-10-4.480469-10-10v-23.339844c0-5.519531 4.480469-10 10-10h234.679688c5.519531 0 10 4.480469 10 10zm0 0" fill="#d8d6d7"/><path d="m376.558594 472.160156v23.339844c0 5.519531-4.480469 10-10 10h-202.679688c-5.519531 0-10-4.480469-10-10v-23.339844c0-5.519531 4.480469-10 10-10h202.679688c5.519531 0 10 4.480469 10 10zm0 0" fill="#fff"/><path d="m141.378906 208.546875-64.96875-60.0625c-6.925781-6.402344-6.933594-17.367187 0-23.777344l64.96875-60.066406c6.5625-6.070313 16.804688-5.671875 22.878906.898437 6.070313 6.566407 5.671876 16.808594-.898437 22.878907l-52.105469 48.175781 52.105469 48.179688c6.570313 6.070312 6.96875 16.3125.898437 22.878906-6.082031 6.574218-16.324218 6.960937-22.878906.894531zm0 0" fill="#40c4df"/><path d="m357.0625 64.640625 64.96875 60.0625c6.921875 6.402344 6.933594 17.367187 0 23.777344l-64.96875 60.066406c-6.5625 6.070313-16.808594 5.671875-22.878906-.898437-6.074219-6.5625-5.671875-16.808594.894531-22.878907l52.109375-48.175781-52.109375-48.179688c-6.566406-6.066406-6.96875-16.3125-.894531-22.878906 6.078125-6.570312 16.320312-6.960937 22.878906-.894531zm0 0" fill="#40c4df"/><path d="m235.511719 185.621094c-10.050781 0-17.925781 7.871094-17.925781 17.925781 0 10.050781 7.875 17.921875 17.925781 17.921875 9.648437 0 17.496093-8.039062 17.496093-17.921875 0-9.886719-7.847656-17.925781-17.496093-17.925781zm0 0" fill="#40c4df"/><path d="m248.902344 53.53125c-15.546875 0-29.160156 5.101562-38.347656 14.363281-8.4375 8.507813-12.839844 19.96875-12.730469 33.144531l.039062 4.703126h27.726563v-4.746094c0-13.867188 8.574218-21.820313 23.523437-21.820313 14.726563 0 23.523438 8.554688 23.523438 22.882813 0 18.460937-11.246094 25.648437-40.101563 25.648437h-11.03125l1.089844 43.074219h26.015625l.644531-20.296875c32.71875-1.476563 51.363282-18.941406 51.363282-48.425781 0-29.023438-20.785157-48.527344-51.714844-48.527344zm0 0" fill="#40c4df"/><g fill="#491352"><path d="m483.9375 0h-469.4375c-7.71875 0-14 6.28125-14 14v305.792969c0 7.71875 6.28125 14 14 14h203.058594v123.863281h-85.671875c-7.71875 0-14 6.28125-14 14v23.339844c0 7.722656 6.28125 14 14 14h234.667969c7.714843 0 14-6.277344 14-14v-23.339844c0-7.71875-6.285157-14-14-14h-85.675782v-123.863281h203.058594c7.71875 0 14-6.28125 14-14v-305.792969c0-7.71875-6.277344-14-14-14zm-117.382812 465.65625c3.304687 0 6 2.695312 6 6v23.34375c0 3.308594-2.695313 6-6 6h-234.667969c-3.308594 0-6-2.691406-6-6v-23.34375c0-3.304688 2.691406-6 6-6zm-140.996094-8v-123.863281h47.320312v123.863281zm264.378906-137.863281c0 3.308593-2.691406 6-6 6h-469.4375c-3.308594 0-6-2.691407-6-6v-305.792969c0-3.308594 2.691406-6 6-6h469.4375c3.308594 0 6 2.691406 6 6zm0 0"/><path d="m457.9375 26h-417.4375c-7.71875 0-14 6.28125-14 14v253.792969c0 7.71875 6.28125 14 14 14h417.441406c7.71875 0 14-6.28125 14-14v-253.792969c-.003906-7.71875-6.28125-14-14.003906-14zm6 267.792969c0 3.308593-2.691406 6-6 6h-417.4375c-3.308594 0-6-2.691407-6-6v-253.792969c0-3.308594 2.691406-6 6-6h417.441406c3.308594 0 6 2.691406 6 6v253.792969zm0 0"/><path d="m138.664062 211.484375c3.875 3.585937 8.789063 5.359375 13.695313 5.359375 5.441406 0 10.863281-2.179688 14.835937-6.476562 3.660157-3.960938 5.5625-9.105469 5.351563-14.496094s-2.511719-10.375-6.46875-14.035156l-48.933594-45.242188 48.929688-45.238281c3.960937-3.664063 6.261719-8.648438 6.472656-14.039063.207031-5.386718-1.691406-10.535156-5.355469-14.496094-3.660156-3.960937-8.644531-6.257812-14.035156-6.46875-5.398438-.203124-10.539062 1.691407-14.496094 5.351563l-64.96875 60.066406c-4.117187 3.804688-6.480468 9.210938-6.480468 14.824219 0 5.617188 2.363281 11.019531 6.480468 14.828125zm-59.542968-83.839844 64.972656-60.066406c2.269531-2.101563 5.1875-3.238281 8.261719-3.238281.160156 0 .324219 0 .488281.007812 3.253906.125 6.261719 1.515625 8.472656 3.90625 2.210938 2.390625 3.359375 5.5 3.234375 8.753906-.128906 3.253907-1.515625 6.261719-3.90625 8.472657l-52.109375 48.175781c-.816406.757812-1.285156 1.824219-1.285156 2.941406 0 1.113282.464844 2.179688 1.285156 2.933594l52.109375 48.179688c2.390625 2.210937 3.78125 5.222656 3.90625 8.472656.125 3.253906-1.019531 6.363281-3.230469 8.753906-4.5625 4.933594-12.292968 5.238281-17.226562.675781l-64.972656-60.066406c-2.519532-2.332031-3.910156-5.511719-3.910156-8.953125s1.390624-6.617188 3.910156-8.949219zm0 0"/><path d="m331.246094 210.367188c7.582031 8.203124 20.355468 8.679687 28.53125 1.117187l64.96875-60.0625c8.652344-8 8.613281-21.6875 0-29.652344l-64.96875-60.066406c-8.171875-7.554687-20.964844-7.058594-28.53125 1.117187-7.558594 8.175782-7.058594 20.976563 1.117187 28.535157l48.933594 45.242187-48.933594 45.238282c-8.175781 7.554687-8.679687 20.355468-1.117187 28.53125zm6.546875-22.660157 52.109375-48.175781c1.710937-1.582031 1.710937-4.292969 0-5.875l-52.109375-48.179688c-2.390625-2.207031-3.777344-5.21875-3.902344-8.46875-.425781-10.773437 12.476563-16.808593 20.457031-9.429687l64.964844 60.0625c5.21875 4.828125 5.226562 13.070313 0 17.90625l-64.96875 60.066406c-4.964844 4.597657-12.667969 4.25-17.226562-.675781-4.5625-4.9375-4.261719-12.664062.675781-17.230469zm0 0"/><path d="m235.511719 181.621094c-12.292969 0-21.925781 9.632812-21.925781 21.925781s9.632812 21.921875 21.925781 21.921875c11.851562 0 21.496093-9.835938 21.496093-21.921875.003907-12.089844-9.644531-21.925781-21.496093-21.925781zm0 35.847656c-7.808594 0-13.925781-6.117188-13.925781-13.921875 0-7.808594 6.117187-13.925781 13.925781-13.925781 7.441406 0 13.496093 6.246094 13.496093 13.925781.003907 7.675781-6.054687 13.921875-13.496093 13.921875zm0 0"/><path d="m197.863281 109.742188h27.726563c2.210937 0 4-1.789063 4-4v-4.746094c0-14.726563 10.617187-17.820313 19.523437-17.820313 12.589844 0 19.523438 6.707031 19.523438 18.882813 0 13.710937-5.90625 21.648437-36.101563 21.648437h-11.03125c-2.246094 0-4.058594 1.851563-4 4.101563l1.09375 43.074218c.054688 2.167969 1.828125 3.898438 3.996094 3.898438h26.015625c2.160156 0 3.929687-1.714844 4-3.875l.527344-16.660156c32.777343-2.730469 51.480469-21.589844 51.480469-52.1875 0-70.648438-111.351563-69.703125-110.792969-.988282l.039062 4.710938c.019531 2.191406 1.804688 3.960938 4 3.960938zm98.753907-7.683594c0 27.265625-16.882813 43.046875-47.542969 44.429687-2.089844.097657-3.753907 1.78125-3.820313 3.871094l-.515625 16.417969h-18.242187l-.886719-35.070313h6.925781c21.808594 0 44.105469-3.523437 44.105469-29.648437 0-16.585938-10.546875-26.882813-27.527344-26.882813-16.578125 0-27.519531 8.785157-27.519531 26.566407h-19.765625c-.472656-59.769532 94.789063-58.976563 94.789063.316406zm0 0"/><path d="m431.71875 233.5h-365c-2.207031 0-4 1.792969-4 4s1.792969 4 4 4h365c2.207031 0 4-1.792969 4-4s-1.792969-4-4-4zm0 0"/><path d="m431.71875 256.5h-365c-2.207031 0-4 1.792969-4 4s1.792969 4 4 4h365c5.285156 0 5.292969-8 0-8zm0 0"/><path d="m431.71875 279.5h-365c-2.207031 0-4 1.792969-4 4s1.792969 4 4 4h365c5.285156 0 5.292969-8 0-8zm0 0"/></g></svg>